<svg width="9" height="10" viewBox="0 0 9 10" fill="none" xmlns="http://www.w3.org/2000/svg">
<path d="M7.54234 6.65949L4.80823 9.39359L2.07413 6.65949C1.53338 6.11873 1.16513 5.42978 1.01594 4.67973C0.866755 3.92969 0.943329 3.15225 1.23598 2.44573C1.52864 1.73921 2.02423 1.13533 2.66008 0.710471C3.29594 0.285608 4.0435 0.0588379 4.80823 0.0588379C5.57297 0.0588379 6.32053 0.285608 6.95638 0.710471C7.59224 1.13533 8.08783 1.73921 8.38048 2.44573C8.67314 3.15225 8.74971 3.92969 8.60052 4.67973C8.45133 5.42978 8.08308 6.11873 7.54234 6.65949ZM4.80823 5.64387C5.264 5.64387 5.7011 5.46281 6.02338 5.14053C6.34566 4.81826 6.52671 4.38115 6.52671 3.92538C6.52671 3.46962 6.34566 3.03251 6.02338 2.71024C5.7011 2.38796 5.264 2.2069 4.80823 2.2069C4.35246 2.2069 3.91536 2.38796 3.59308 2.71024C3.27081 3.03251 3.08975 3.46962 3.08975 3.92538C3.08975 4.38115 3.27081 4.81826 3.59308 5.14053C3.91536 5.46281 4.35246 5.64387 4.80823 5.64387ZM4.80823 4.78463C4.58035 4.78463 4.3618 4.6941 4.20066 4.53296C4.03952 4.37182 3.94899 4.15327 3.94899 3.92538C3.94899 3.6975 4.03952 3.47895 4.20066 3.31781C4.3618 3.15667 4.58035 3.06614 4.80823 3.06614C5.03612 3.06614 5.25467 3.15667 5.41581 3.31781C5.57695 3.47895 5.66747 3.6975 5.66747 3.92538C5.66747 4.15327 5.57695 4.37182 5.41581 4.53296C5.25467 4.6941 5.03612 4.78463 4.80823 4.78463Z" fill="white"/>
</svg>
